<?xml version="1.0" standalone="no"?>
<!DOCTYPE svg PUBLIC "-//W3C//DTD SVG 20010904//EN"
 "http://www.w3.org/TR/2001/REC-SVG-20010904/DTD/svg10.dtd">
<svg version="1.0" xmlns="http://www.w3.org/2000/svg"
 width="315.000000pt" height="315.000000pt" viewBox="0 0 315.000000 315.000000"
 preserveAspectRatio="xMidYMid meet">

<g transform="translate(0.000000,315.000000) scale(0.100000,-0.100000)"
fill="#000000" stroke="none">
<path d="M1546 3133 c-37 -11 -65 -30 -105 -72 l-56 -56 -56 38 c-48 33 -67
40 -123 44 -134 11 -225 -59 -286 -221 -8 -23 -14 -27 -33 -22 -85 25 -134 28
-188 13 -113 -33 -175 -119 -186 -258 l-6 -79 -61 0 c-100 -1 -175 -48 -210
-132 -22 -51 -20 -153 4 -229 10 -35 16 -67 12 -70 -4 -4 -28 -14 -54 -24 -62
-23 -126 -79 -149 -129 -40 -89 -18 -181 67 -275 l45 -50 -52 -47 c-162 -153
-137 -302 67 -399 41 -20 74 -37 74 -39 0 -1 -14 -32 -32 -67 -61 -121 -47
-234 38 -308 34 -30 116 -61 162 -61 23 0 23 -1 17 -63 -12 -116 34 -205 130
-253 50 -24 63 -26 123 -20 37 3 81 9 98 12 31 6 31 6 37 -44 24 -199 219
-274 409 -156 l37 23 25 -42 c36 -62 107 -124 158 -137 96 -26 186 6 266 96
l50 56 34 -26 c87 -66 198 -86 286 -51 59 24 116 92 142 171 12 35 25 64 28
64 4 0 29 -7 56 -15 191 -58 326 52 326 265 l0 67 74 6 c84 7 118 18 164 53
75 58 97 173 53 284 -11 30 -21 58 -21 61 0 4 20 14 43 23 57 21 123 78 147
127 24 46 26 125 5 175 -8 19 -39 61 -69 92 l-55 58 62 60 c92 87 121 163 98
252 -16 59 -60 104 -139 143 -37 19 -68 34 -69 34 -1 1 11 27 27 58 39 78 47
137 26 202 -32 101 -122 170 -240 182 l-51 5 0 103 c0 99 -1 105 -30 146 -17
24 -50 57 -73 74 -37 25 -55 30 -116 33 -40 2 -89 -1 -109 -6 -35 -10 -37 -9
-43 16 -15 71 -40 120 -83 162 -83 81 -191 94 -299 35 -35 -20 -65 -35 -67
-33 -1 2 -16 23 -33 49 -35 52 -90 93 -147 108 -53 14 -89 13 -149 -6z m151
-64 c37 -13 99 -74 114 -112 11 -27 10 -31 -12 -49 -71 -57 -164 -81 -226 -57
-37 14 -133 88 -133 103 0 23 64 89 104 107 46 21 111 24 153 8z m-428 -64
c14 -8 39 -25 55 -38 l30 -24 -32 -50 c-56 -88 -112 -123 -195 -123 -41 0
-133 24 -150 40 -13 11 47 132 81 163 58 55 144 68 211 32z m869 -31 c53 -22
89 -60 107 -115 27 -80 21 -91 -59 -111 -75 -19 -125 -14 -172 17 -23 15 -104
128 -104 146 0 7 84 63 110 72 29 11 81 7 118 -9z m-694 -118 c120 -98 231
-106 355 -26 l60 39 30 -53 c71 -127 176 -170 321 -131 30 8 58 15 61 15 3 0
9 -23 12 -52 8 -67 50 -152 91 -183 42 -32 106 -54 176 -62 l56 -5 -1 -92 c0
-98 10 -133 57 -203 22 -33 125 -114 161 -126 4 -1 -7 -29 -24 -61 -27 -49
-33 -74 -37 -138 -4 -70 -2 -83 23 -132 15 -30 43 -69 61 -87 l34 -32 -46 -49
c-67 -72 -88 -125 -81 -212 3 -46 14 -91 30 -128 l26 -56 -55 -22 c-70 -29
-147 -98 -169 -152 -9 -24 -19 -78 -22 -120 l-6 -77 -46 -6 c-148 -20 -252
-106 -292 -243 -13 -43 -13 -44 -48 -35 -20 4 -74 8 -121 8 -118 0 -182 -34
-273 -143 l-27 -34 -49 36 c-122 90 -204 99 -327 36 -89 -45 -75 -49 -138 39
-35 47 -88 87 -137 101 -42 12 -131 12 -184 0 -45 -10 -50 -6 -59 52 -14 85
-76 166 -154 201 -24 10 -74 22 -111 26 -50 5 -65 10 -63 21 14 60 13 152 -2
203 -18 63 -88 143 -145 166 -17 8 -31 16 -31 20 0 3 10 31 21 61 47 119 21
244 -70 343 l-40 44 45 44 c25 24 57 68 71 97 23 46 25 61 20 120 -3 37 -15
92 -26 122 -11 30 -20 55 -18 56 1 1 27 13 57 27 131 57 174 132 172 299 l-1
78 72 0 c89 0 138 21 191 80 34 37 86 134 86 160 0 5 4 20 9 34 l10 24 49 -18
c79 -30 141 -35 207 -15 48 13 69 28 116 75 31 32 60 68 64 79 8 27 11 27 59
-13z m-582 -74 l27 -11 -18 -54 c-54 -156 -114 -207 -243 -207 l-48 0 0 73 c1
106 28 159 105 201 34 18 130 17 177 -2z m1676 -53 c26 -13 54 -38 70 -62 24
-35 27 -50 26 -114 -1 -41 -6 -79 -12 -85 -15 -15 -137 8 -185 35 -45 25 -83
96 -93 173 l-6 51 38 11 c63 16 115 13 162 -9z m-2020 -344 c6 -128 -23 -193
-105 -237 -85 -46 -87 -45 -106 15 -28 89 -32 142 -13 190 29 78 78 107 171
104 l50 -2 3 -70z m2256 -10 c73 -19 111 -46 136 -95 29 -56 25 -113 -10 -188
l-29 -63 -41 21 c-59 30 -120 89 -141 135 -18 40 -27 183 -12 198 10 10 33 8
97 -8z m-2464 -411 c27 -81 29 -148 6 -192 -22 -43 -85 -112 -101 -112 -16 0
-79 69 -101 112 -31 61 -16 146 34 191 15 14 120 64 139 67 1 0 11 -30 23 -66z
m2661 -49 c82 -42 109 -77 109 -146 0 -54 -30 -103 -98 -164 -50 -45 -58 -43
-109 24 -39 51 -57 112 -49 165 6 35 62 156 73 156 2 0 35 -16 74 -35z m-2704
-413 c23 -29 47 -71 54 -94 14 -53 7 -131 -17 -181 -20 -42 -23 -42 -115 4
-144 72 -158 172 -38 284 27 26 55 45 62 42 7 -2 31 -27 54 -55z m2721 -86
c53 -56 79 -116 69 -158 -12 -45 -52 -93 -102 -120 -71 -39 -82 -37 -110 25
-50 111 -42 185 30 262 23 25 46 45 52 45 5 0 33 -24 61 -54z m-2611 -351 c75
-50 97 -101 91 -211 -2 -46 -9 -89 -14 -94 -14 -14 -100 5 -143 31 -43 26 -75
97 -66 149 7 43 60 160 72 160 5 0 31 -16 60 -35z m2490 -106 c61 -147 -8
-249 -169 -249 l-68 0 0 65 c0 71 18 125 53 164 23 25 135 82 152 77 6 -1 20
-27 32 -57z m-2197 -296 c68 -28 115 -94 126 -177 l7 -45 -44 -12 c-113 -30
-195 -5 -238 72 -21 37 -28 117 -14 167 5 23 9 23 67 17 33 -4 77 -14 96 -22z
m1900 -103 c0 -122 -43 -188 -132 -205 -40 -8 -157 21 -164 40 -3 6 5 38 17
70 39 104 131 172 237 174 l42 1 0 -80z m-1496 -151 c45 -12 114 -73 142 -124
l19 -36 -25 -19 c-31 -24 -123 -60 -154 -60 -38 0 -89 21 -119 48 -28 27 -57
104 -57 153 0 25 4 28 53 37 72 13 96 14 141 1z m1083 -50 c29 -10 32 -14 26
-37 -11 -47 -49 -126 -69 -144 -29 -25 -89 -48 -126 -48 -53 0 -178 65 -178
92 0 5 21 32 47 59 46 49 82 73 133 90 31 10 124 4 167 -12z m-561 -74 c27
-14 64 -38 83 -54 l35 -28 -33 -42 c-40 -50 -75 -76 -123 -89 -47 -13 -114 1
-147 31 -25 23 -81 105 -81 119 0 12 74 58 117 74 56 20 93 17 149 -11z"/>
<path d="M1577 2524 c-4 -4 -7 -17 -7 -29 0 -11 -17 -37 -37 -57 -66 -62 -127
-82 -175 -57 -20 11 -20 11 -2 -21 20 -34 71 -70 98 -70 21 0 21 -33 0 -65
-12 -18 -13 -28 -4 -44 14 -28 18 -26 12 4 -2 14 3 36 12 50 9 13 16 31 16 40
0 13 18 15 110 15 104 0 110 -1 110 -20 0 -12 7 -31 16 -45 12 -18 13 -28 4
-44 -7 -14 -7 -21 -1 -21 19 0 24 49 7 75 -24 36 -20 55 10 55 17 0 40 14 65
39 48 48 51 64 9 49 -17 -5 -46 -7 -65 -4 -45 9 -133 88 -137 124 -3 26 -26
40 -41 26z m68 -94 c47 -48 91 -70 142 -70 l38 -1 -28 -24 c-21 -19 -40 -25
-73 -25 -43 0 -44 1 -46 33 l-1 32 -4 -32 c-6 -50 -33 -43 -35 10 l-1 42 -4
-42 c-4 -38 -7 -43 -29 -43 -23 0 -24 3 -26 63 l-2 62 -3 -62 c-3 -55 -7 -63
-23 -63 -16 0 -20 8 -22 38 l-1 37 -4 -37 c-5 -43 -28 -52 -43 -15 l-9 22 0
-22 c-1 -27 -20 -29 -62 -8 -36 19 -29 35 15 35 34 0 90 35 135 84 14 14 30
26 36 26 6 0 28 -18 50 -40z"/>
<path d="M1553 2243 c26 -2 68 -2 95 0 26 2 4 3 -48 3 -52 0 -74 -1 -47 -3z"/>
<path d="M1737 2131 c-5 -20 -11 -21 -141 -21 -118 0 -136 2 -146 18 -9 15
-10 14 -8 -8 l3 -25 146 -3 c119 -2 148 0 158 12 8 10 9 21 3 32 -8 14 -10 14
-15 -5z"/>
<path d="M1442 2045 c3 -19 12 -20 147 -23 141 -3 171 3 171 31 0 7 -4 7 -12
-1 -17 -17 -279 -17 -297 1 -10 10 -12 8 -9 -8z"/>
<path d="M1310 1958 c-63 -22 -117 -42 -119 -44 -2 -2 1 -22 8 -44 7 -26 18
-40 28 -40 21 0 165 50 177 61 6 5 5 22 -1 44 -11 33 -9 36 15 50 45 24 13 16
-108 -27z m86 -53 c-6 -17 -165 -70 -176 -59 -5 5 -12 21 -15 35 -6 26 -4 28
82 56 l88 30 13 -24 c8 -14 11 -31 8 -38z"/>
<path d="M1750 1994 c0 -2 12 -9 26 -14 21 -8 25 -15 19 -33 -17 -55 -14 -58
75 -88 46 -16 90 -29 97 -29 20 0 43 62 29 77 -12 13 -246 96 -246 87z m158
-61 c85 -28 96 -40 69 -77 -13 -18 -17 -18 -95 8 -45 15 -84 31 -87 36 -6 9
15 60 24 60 3 0 43 -12 89 -27z"/>
<path d="M1487 1972 c-24 -26 -21 -49 8 -76 l25 -23 -51 -6 c-65 -8 -123 -36
-127 -62 -2 -18 -2 -19 8 -2 17 27 59 44 145 57 128 19 279 -4 340 -52 18 -14
26 -17 23 -7 -6 20 -67 48 -137 62 l-60 12 30 17 c21 13 29 25 29 46 0 45 -15
52 -120 52 -81 0 -100 -3 -113 -18z m211 -4 c18 -18 14 -56 -7 -68 -11 -5 -53
-10 -94 -10 -58 0 -80 4 -98 19 -21 16 -22 22 -11 45 11 25 14 26 105 26 59 0
97 -4 105 -12z"/>
<path d="M1140 1940 c0 -20 5 -30 15 -30 10 0 15 10 15 30 0 20 -5 30 -15 30
-10 0 -15 -10 -15 -30z"/>
<path d="M2010 1940 c0 -20 5 -30 15 -30 10 0 15 10 15 30 0 20 -5 30 -15 30
-10 0 -15 -10 -15 -30z"/>
<path d="M1755 1920 c3 -5 8 -10 11 -10 2 0 4 5 4 10 0 6 -5 10 -11 10 -5 0
-7 -4 -4 -10z"/>
<path d="M1013 1827 c-62 -40 -112 -77 -113 -83 0 -18 40 -64 56 -64 19 0 164
99 164 112 0 5 -9 23 -20 39 l-21 28 31 16 c29 15 39 26 23 25 -5 -1 -58 -33
-120 -73z m93 -35 c-3 -5 -37 -31 -76 -58 l-70 -48 -25 24 c-14 13 -24 28 -23
32 2 4 37 30 78 57 l75 48 24 -22 c13 -13 21 -27 17 -33z"/>
<path d="M2044 1891 c3 -5 19 -14 36 -21 34 -14 36 -19 15 -46 -8 -10 -15 -24
-15 -31 0 -13 150 -103 173 -103 18 0 51 55 42 70 -7 11 -151 93 -211 120 -25
10 -42 15 -40 11z m169 -92 c40 -22 74 -42 76 -45 6 -5 -28 -54 -38 -54 -12 0
-149 79 -155 89 -7 10 22 51 35 51 5 0 42 -18 82 -41z"/>
<path d="M1160 1820 c0 -5 5 -10 11 -10 5 0 7 5 4 10 -3 6 -8 10 -11 10 -2 0
-4 -4 -4 -10z"/>
<path d="M2020 1820 c0 -5 5 -10 10 -10 6 0 10 5 10 10 0 6 -4 10 -10 10 -5 0
-10 -4 -10 -10z"/>
<path d="M2308 1808 c-8 -22 4 -58 19 -58 10 0 13 9 11 32 -3 32 -23 49 -30
26z"/>
<path d="M852 1778 c4 -46 28 -49 28 -4 0 26 -4 36 -16 36 -11 0 -14 -8 -12
-32z"/>
<path d="M1260 1779 c0 -5 5 -7 10 -4 6 3 10 8 10 11 0 2 -4 4 -10 4 -5 0 -10
-5 -10 -11z"/>
<path d="M1410 1774 c-139 -36 -297 -150 -381 -273 l-34 -50 -205 -3 -205 -3
212 -3 c133 -1 214 2 218 8 11 17 61 11 89 -11 14 -11 26 -16 26 -11 0 16 -47
42 -75 42 -27 0 -30 6 -16 29 12 18 51 8 89 -24 39 -32 60 -32 102 5 44 37 67
37 110 0 19 -16 42 -29 50 -29 8 -1 35 15 59 34 24 19 47 35 51 35 5 0 27 -16
50 -35 23 -19 48 -35 55 -35 6 0 32 16 56 35 24 19 49 35 56 35 6 0 30 -16 53
-35 23 -19 45 -35 50 -35 4 0 28 16 53 35 25 19 52 35 59 35 8 0 29 -16 48
-35 41 -43 59 -44 102 -5 35 33 48 36 66 18 9 -9 3 -16 -25 -32 -20 -12 -39
-28 -41 -36 -3 -8 9 -2 27 13 39 32 52 34 76 7 17 -19 29 -20 214 -18 l196 3
-194 2 c-188 3 -195 4 -210 26 -32 47 -149 161 -207 203 -122 87 -248 124
-416 123 -57 0 -128 -7 -158 -15z m306 -5 c117 -21 239 -82 334 -167 45 -40
45 -40 26 -61 -27 -29 -57 -26 -91 9 -16 17 -39 30 -53 30 -13 0 -41 -13 -62
-30 -21 -16 -42 -30 -48 -30 -5 0 -26 14 -47 30 -47 38 -72 38 -115 0 -44 -37
-64 -37 -107 0 -18 17 -42 30 -52 30 -10 0 -35 -13 -56 -30 -21 -16 -44 -30
-52 -30 -9 0 -32 14 -53 30 -46 36 -60 37 -97 6 -55 -45 -66 -47 -106 -19 -21
14 -37 29 -37 33 0 23 143 129 217 161 109 47 269 62 399 38z m-384 -227 c51
-44 62 -45 110 -7 24 19 49 35 57 35 7 0 29 -13 48 -30 43 -38 70 -38 113 0
44 37 63 37 110 0 21 -16 44 -30 53 -30 8 0 31 14 52 30 21 17 44 30 52 30 9
0 32 -13 53 -30 45 -36 66 -37 97 -8 18 17 26 19 35 10 9 -9 2 -20 -28 -46
-21 -20 -43 -35 -47 -36 -5 0 -27 16 -50 35 -22 19 -48 35 -57 35 -10 0 -34
-13 -55 -30 -47 -37 -60 -37 -109 0 -22 17 -45 30 -51 30 -7 0 -33 -17 -59
-37 -34 -26 -51 -34 -61 -27 -8 5 -32 22 -54 37 -43 31 -56 29 -114 -19 -36
-30 -39 -30 -81 7 -19 16 -43 31 -54 32 -10 0 -40 -14 -66 -33 -44 -32 -49
-33 -70 -20 -12 8 -37 24 -54 35 -35 22 -36 24 -23 44 8 12 15 9 41 -12 47
-40 67 -39 119 4 44 36 52 36 93 1z"/>
<path d="M1920 1779 c0 -5 5 -7 10 -4 6 3 10 8 10 11 0 2 -4 4 -10 4 -5 0 -10
-5 -10 -11z"/>
<path d="M1189 1760 c-3 -21 -11 -26 -44 -30 -32 -4 -41 -9 -43 -27 -3 -20 -9
-23 -48 -23 -40 0 -44 -2 -44 -25 0 -24 -3 -25 -55 -25 -52 0 -55 -1 -55 -25
0 -22 -4 -25 -40 -25 -31 0 -40 -4 -40 -17 0 -12 3 -14 8 -6 4 6 23 13 42 15
27 2 36 8 38 26 3 20 9 22 57 22 33 0 55 -5 58 -12 3 -7 3 4 0 24 l-5 37 43 3
c37 2 45 7 47 26 3 19 10 22 43 22 41 0 54 13 47 47 -4 14 -6 12 -9 -7z"/>
<path d="M1981 1754 c0 -11 3 -14 6 -6 3 7 2 16 -1 19 -3 4 -6 -2 -5 -13z"/>
<path d="M2330 1736 c0 -2 16 -14 36 -25 35 -21 36 -22 20 -46 -9 -13 -16 -30
-16 -37 0 -15 140 -88 168 -88 10 0 26 14 36 31 22 37 29 31 -109 100 -55 28
-104 54 -109 60 -10 9 -26 12 -26 5z m163 -92 c39 -20 74 -38 76 -40 9 -8 -20
-54 -34 -54 -16 0 -155 67 -155 75 0 13 24 55 32 55 5 0 41 -16 81 -36z"/>
<path d="M728 1673 c-67 -32 -118 -62 -118 -70 0 -21 31 -63 47 -63 20 0 160
67 168 80 4 6 0 22 -9 35 -22 34 -21 39 17 58 17 8 28 16 22 16 -5 0 -63 -26
-127 -56z m75 -17 c13 -19 14 -26 4 -34 -21 -17 -136 -72 -150 -72 -11 0 -37
39 -37 56 0 6 141 72 156 73 7 1 19 -10 27 -23z"/>
<path d="M2013 1723 c9 -2 25 -2 35 0 9 3 1 5 -18 5 -19 0 -27 -2 -17 -5z"/>
<path d="M2074 1690 c1 -10 14 -16 43 -18 29 -2 43 -8 46 -20 3 -12 5 -11 6 6
1 20 -4 22 -43 22 -27 0 -46 5 -49 13 -2 7 -3 6 -3 -3z"/>
<path d="M2603 1683 c-19 -7 -17 -63 2 -63 10 0 15 11 15 35 0 19 -1 35 -2 34
-2 0 -9 -3 -15 -6z"/>
<path d="M570 1650 c0 -20 5 -30 15 -30 10 0 15 10 15 30 0 20 -5 30 -15 30
-10 0 -15 -10 -15 -30z"/>
<path d="M2171 1613 c0 -10 3 -13 6 -5 3 7 23 12 48 12 38 0 44 -3 47 -22 2
-19 9 -23 43 -24 l40 -1 -37 4 c-29 3 -37 9 -40 26 -3 19 -10 22 -55 25 -46 3
-53 1 -52 -15z"/>
<path d="M965 1560 c3 -5 8 -10 11 -10 2 0 4 5 4 10 0 6 -5 10 -11 10 -5 0 -7
-4 -4 -10z"/>
<path d="M2361 1544 c0 -11 3 -14 6 -6 3 7 2 16 -1 19 -3 4 -6 -2 -5 -13z"/>
<path d="M712 1528 c-7 -7 -12 -17 -12 -22 0 -6 6 -3 13 6 9 10 32 18 63 21
l49 3 -50 2 c-29 1 -56 -3 -63 -10z"/>
<path d="M870 1510 c0 -5 5 -10 10 -10 6 0 10 5 10 10 0 6 -4 10 -10 10 -5 0
-10 -4 -10 -10z"/>
<path d="M2310 1509 c0 -5 5 -7 10 -4 6 3 10 8 10 11 0 2 -4 4 -10 4 -5 0 -10
-5 -10 -11z"/>
<path d="M670 1490 c0 -5 5 -10 11 -10 5 0 7 5 4 10 -3 6 -8 10 -11 10 -2 0
-4 -4 -4 -10z"/>
<path d="M960 1490 c0 -5 5 -10 10 -10 6 0 10 5 10 10 0 6 -4 10 -10 10 -5 0
-10 -4 -10 -10z"/>
<path d="M2515 1490 c-3 -5 -1 -10 4 -10 6 0 11 5 11 10 0 6 -2 10 -4 10 -3 0
-8 -4 -11 -10z"/>
<path d="M2430 1480 c0 -5 5 -10 10 -10 6 0 10 5 10 10 0 6 -4 10 -10 10 -5 0
-10 -4 -10 -10z"/>
<path d="M1243 1444 l-28 -26 38 22 39 23 31 -23 32 -23 -24 26 c-31 34 -52
34 -88 1z"/>
<path d="M1453 1444 l-28 -26 32 21 c39 26 51 26 80 -1 13 -12 23 -16 23 -10
0 15 -40 42 -62 42 -9 0 -30 -12 -45 -26z"/>
<path d="M1673 1453 c-13 -8 -23 -20 -23 -25 0 -5 12 0 26 11 15 12 32 21 39
21 7 0 24 -9 39 -21 14 -11 26 -16 26 -10 0 15 -42 41 -65 40 -11 0 -30 -7
-42 -16z"/>
<path d="M1883 1451 c-32 -27 -29 -37 3 -12 33 26 56 27 79 1 10 -11 20 -18
23 -15 3 3 -3 14 -13 25 -23 25 -63 25 -92 1z"/>
<path d="M2145 1166 c-24 -17 -15 -50 14 -54 39 -6 56 39 22 57 -13 7 -23 6
-36 -3z"/>
<path d="M764 1149 c-100 -29 -134 -171 -60 -245 52 -52 187 -59 206 -11 10
29 9 30 -29 11 -47 -23 -97 -12 -122 29 -28 44 -23 138 9 170 32 31 97 30 121
-2 l18 -24 7 28 c8 33 7 34 -41 46 -46 10 -68 10 -109 -2z"/>
<path d="M1035 1153 c-38 -9 -65 -44 -65 -83 0 -41 12 -54 77 -90 44 -24 56
-41 47 -65 -13 -34 -88 -30 -99 5 -9 28 -25 15 -25 -20 0 -25 5 -30 35 -36 74
-13 137 17 151 73 10 39 -14 74 -74 107 -61 32 -74 53 -47 72 27 20 51 17 74
-8 l20 -21 10 24 c8 21 5 26 -18 36 -27 13 -52 14 -86 6z"/>
<path d="M1730 1138 c-106 -257 -109 -268 -86 -268 18 0 25 9 35 40 11 39 13
40 56 40 43 0 45 -1 56 -40 11 -38 14 -40 51 -40 21 0 38 3 38 8 -1 10 -94
255 -103 270 -13 19 -37 14 -47 -10z m25 -114 c19 -46 20 -44 -15 -44 -16 0
-30 4 -30 9 0 12 21 71 26 71 2 0 11 -16 19 -36z"/>
<path d="M1230 1148 c0 -2 -2 -65 -3 -141 l-2 -137 38 0 37 0 0 65 0 65 55 0
55 0 0 -65 0 -65 38 0 37 0 0 140 0 140 -37 0 -38 0 0 -55 0 -55 -55 0 -55 0
0 55 0 55 -35 0 c-19 0 -35 -1 -35 -2z"/>
<path d="M1970 1071 c-31 -9 -55 -50 -47 -82 4 -17 22 -32 52 -47 26 -12 45
-28 42 -35 -6 -19 -59 -21 -69 -3 -13 24 -28 19 -28 -9 0 -49 111 -44 139 6
22 40 8 72 -41 95 -44 20 -57 46 -25 52 10 2 27 -4 37 -13 16 -15 18 -15 24 1
4 10 3 21 -1 24 -13 12 -57 18 -83 11z"/>
<path d="M2321 1067 c-50 -18 -50 -34 1 -33 36 1 43 -2 46 -19 2 -16 -8 -24
-48 -38 -36 -13 -51 -24 -56 -41 -12 -51 40 -91 85 -66 15 7 27 8 41 0 20 -11
70 -4 70 10 0 4 -7 10 -15 14 -11 4 -15 22 -15 75 0 67 -14 101 -40 101 -5 0
-14 2 -22 4 -7 3 -28 0 -47 -7z m47 -129 c-2 -25 -8 -33 -23 -33 -23 0 -32 30
-15 50 22 27 42 18 38 -17z"/>
<path d="M2130 970 l0 -100 35 0 35 0 0 100 0 100 -35 0 -35 0 0 -100z"/>
</g>
</svg>
